<?xml version="1.0" encoding="UTF-8"?>
<svg width="752pt" height="752pt" version="1.1" viewBox="0 0 752 752" xmlns="http://www.w3.org/2000/svg">
 <path d="m507.41 500.69c0.96875-5.6289 0.85156-10.926-0.33203-15.902 7.3828-0.20703 14.785-0.54687 22.184-1.0508h0.078126c10.949-0.92578 20.027-5.4375 27.23-13.535 7.4453-8.3398 10.789-18.039 10.031-29.109-0.58594-8.7344-3.6055-16.34-9.0508-22.832 4.1367-0.56641 6.9336-1.1484 8.3984-1.7109l0.16406-0.078125c11.543-4.3047 20.379-11.75 26.496-22.336l0.085937-0.078125c6.7266-11.461 7.1836-23.875 1.3906-37.266v0.089843c-5.4023-13.617-17.117-21.879-35.145-24.785h0.16406c-2.6328-0.50391-5.5391-0.87891-8.7188-1.1484 0.76953-1.2031 1.4727-2.4883 2.1172-3.8359l0.085938-0.16406c4.4727-9.8594 4.9844-19.941 1.5508-30.246-0.03125-0.0625-0.058594-0.14844-0.089844-0.24219-3.7305-10.27-10.309-17.859-19.727-22.746h0.085938c-8.2148-4.668-19.707-6.3242-34.488-4.9727l-0.011719-0.085938c-10.734 0.875-55.219 10.625-133.46 29.266 0.22266-0.37891 0.4375-0.76172 0.65234-1.1406v0.085938c5.6406-9.5625 9.9609-20.074 12.961-31.555l-0.078126 0.085938c3.5742-12.812 2.3164-26.484-3.75-41-7.0508-17.234-20.254-24.633-39.629-22.18h-0.078125c-18.66 1.8359-30.719 14.203-36.199 37.098-3.4453 14.598-6.8711 24.27-10.277 29.023l-0.074219 0.085937c-3.7734 4.2852-9.9453 8.8516-18.512 13.695-0.050781 0.019531-0.10938 0.046875-0.16406 0.078125-12.254 6.6836-21.797 16.848-28.613 30.492v-0.085937c-2.0664 4.0273-3.8867 8.1523-5.4688 12.391-6.793-4.4062-12.719-6.3945-17.77-5.9453-16.859-0.66797-30.348 9.3086-40.438 29.918l0.078125-0.085938c-7.1094 14.039-11.73 29.609-13.859 46.723v0.085937c-2.0742 17.273-0.16797 34.613 5.7031 52.016l0.078125 0.085938c6.5781 20.512 23.102 31.199 49.566 32.039 1.4062 0.046875 2.7109-0.14062 3.9141-0.5625 22.441 39.484 67.395 50.762 134.84 33.836 33.98 11.062 69.016 18.316 105.1 21.766h0.078125c10.215 0.98047 19.512-1.875 27.883-8.5625 8.3984-6.7539 13.398-15.277 15.02-25.617zm-143.98-10.031c-2.1367-0.69922-4.2852-0.74609-6.4414-0.16406-66.285 17.355-106.69 3.0039-121.23-43.047-0.87891-2.9609-2.6641-5.1875-5.3828-6.6836-2.7305-1.4844-5.5898-1.7852-8.5547-0.90625-2.9688 0.875-5.1992 2.6641-6.6875 5.3828-1.4883 2.7305-1.7852 5.582-0.89844 8.5547 0.27734 1.0117 0.57813 2.0156 0.89844 3.0195-11.609-1.6875-19.242-7.1445-22.91-16.387l0.085937 0.085937c-4.7734-14.102-6.3516-28.156-4.7305-42.16 1.7773-14.406 5.6406-27.535 11.578-39.363l0.085937-0.089844c5.3477-10.926 12.082-16.719 20.223-17.371 2.8945 0.55859 6.75 2.8398 11.578 6.8555-0.28906 1.6523-0.52734 3.3086-0.73828 4.9688-0.38281 3.0781 0.37891 5.8398 2.2852 8.3125 1.9219 2.4453 4.4219 3.8633 7.5 4.2461 3.0781 0.38281 5.8555-0.375 8.3203-2.2891 2.4414-1.9141 3.8555-4.4141 4.2422-7.5 1.4609-11.922 4.832-23.012 10.109-33.266v-0.085937c4.668-9.3398 11.164-16.328 19.484-20.949l0.16406-0.085938c11.723-6.6133 20.039-12.98 24.945-19.074l0.085938-0.085937c5.2617-5.9375 10.184-18.633 14.762-38.074 2.7773-11.648 8.5156-18.312 17.203-19.973h0.085937c7.7617-1 13.113 1.8242 16.059 8.4805 3.9258 9.3867 4.8516 18.223 2.7695 26.5l-0.085938 0.078125c-2.4297 9.3984-5.9375 18.012-10.52 25.848v0.085938c-5.6289 9.6445-9.082 18.18-10.352 25.602-0.070313 0.22266-0.12109 0.4375-0.16406 0.65234-0.074218 0.42188-0.13281 0.86328-0.16406 1.3047-0.25391 3.5898-0.14062 10.305 0.32812 20.148v0.15625c0.28906 7.7344-2.1055 17.434-7.1719 29.105h-0.078125c-5.1562 11.414-15.023 20.684-29.598 27.801-2.7773 1.375-4.6836 3.5078-5.7031 6.4414-1.0273 2.9258-0.86328 5.7773 0.48828 8.5664 1.3633 2.7852 3.5156 4.6953 6.4414 5.7109 2.9102 1.0195 5.7617 0.86328 8.5625-0.49609 20.215-9.8398 33.723-22.852 40.516-39.051h-0.078125c6.8516-15.648 9.8945-28.719 9.1289-39.219v-0.15625c-0.16797-3.6211-0.28516-6.7461-0.33203-9.375 83.871-20.059 131.32-30.578 142.35-31.555v-0.085937c9.3555-0.82031 16.664 0.015625 21.934 2.5273h0.089844c4.1992 2.2539 7.1602 5.6719 8.8828 10.277 0.03125 0.078125 0.058594 0.15625 0.089844 0.23828 1.4531 4.5586 1.2031 9.0156-0.73828 13.371-0.027344 0.058594-0.058594 0.11719-0.085938 0.16797-1.9414 4-4.9844 6.7656-9.1289 8.3203l0.085937-0.089843c-6.7422 2.4414-13.539 4.6719-20.387 6.6875-0.20703 0.050781-0.42188 0.10938-0.64844 0.16406-1.0664 0.375-4.0352 1.2695-8.8867 2.6953-0.24609 0.035156-0.49609 0.09375-0.73828 0.16406-23.527 6.8633-54.914 13.25-94.168 19.16-3.082 0.45313-5.5586 1.9141-7.4141 4.3984-1.8398 2.5195-2.5195 5.3203-2.043 8.4023 0.44922 3.0508 1.9141 5.5 4.4062 7.3477 2.5 1.8242 5.2734 2.5117 8.3125 2.0352 40.359-6.0195 72.672-12.543 96.938-19.57 25.496-4.1406 44.434-5.1797 56.824-3.0977h0.16797c8.9414 1.4297 14.949 5.2422 18.016 11.414v0.078125c2.6797 6.1836 2.5938 11.918-0.24609 17.211l0.085937-0.089843c-3.4219 5.8867-8.3398 10.051-14.762 12.477-8.207 2.5977-59.52 6.1367-153.93 10.602-0.13672-0.011719-0.27344-0.011719-0.40625 0-3.0312 0.125-5.5898 1.3203-7.668 3.5898-2.0977 2.2734-3.1094 4.9375-3.0156 7.9922 0.10938 3.0742 1.2734 5.6836 3.5039 7.8242 2.2188 2.1172 4.8555 3.1523 7.9102 3.0938h0.41016c75.879-1.1953 115.83-1.8945 119.85-2.1172h0.15625c4.832-0.34375 9.0703 1.0117 12.719 4.0742l0.085937 0.078125c3.6797 3.2344 5.6875 7.2656 6.0312 12.078 0.33203 4.8047-1.1094 9.0156-4.3203 12.633-3.2109 3.6133-7.2617 5.6211-12.145 6.0312-7.6406 0.54297-15.277 0.91016-22.91 1.1406-5.4102 0.10156-10.988 0.15234-16.711 0.15625-0.53516-0.046874-1.0781-0.046874-1.6328 0-27.621-0.035156-59.328-1.9609-95.148-5.7891-3.0742-0.32812-5.8164 0.48828-8.2344 2.4453-2.4258 1.9375-3.8164 4.4453-4.1562 7.5-0.32812 3.0781 0.48828 5.8164 2.4453 8.2305 1.9375 2.4258 4.4414 3.8203 7.5039 4.1641 35.113 3.7578 66.395 5.7344 93.836 5.9531 0.046875 0.078125 0.10547 0.15625 0.16406 0.24609 2.3828 3.4141 3.1992 7.3359 2.4453 11.734v0.089843c-0.76953 4.668-3.0469 8.5195-6.8516 11.566-3.5625 2.8633-7.5039 4.1445-11.82 3.8398-35.457-3.4141-69.84-10.707-103.16-21.859z"/>
</svg>
