<?xml version="1.0" encoding="UTF-8"?>
<svg width="752pt" height="752pt" version="1.1" viewBox="0 0 752 752" xmlns="http://www.w3.org/2000/svg">
 <path d="m442.38 535.26c10.539-9.125 15.742-20.078 15.613-32.852v-1.0117c13.34-1.8242 25.605-6.7578 36.812-14.801l0.10547-0.10547c17.105-12.648 25.488-27.895 25.141-45.727-0.015626-4.2656-0.48438-8.4297-1.4219-12.477 1.5586-1.0117 3.2148-2.0938 4.9609-3.2344 0.20703-0.18359 0.41016-0.34766 0.60938-0.51172 11.293-7.8984 16.945-20.539 16.934-37.93 0.39844-9.6992-3.0117-19.57-10.234-29.605 3.4453-1.9883 6.7578-4.1836 9.9336-6.5898 1.6484-1.1562 3.543-2.6484 5.6758-4.4609 0.77734-0.67188 1.4883-1.4219 2.1328-2.2383 0.14844-0.19922 0.32031-0.4375 0.51172-0.71094 16.773-15.348 24.988-30.605 24.637-45.723 0.87891-15.656-7.1992-30.832-24.23-45.539l-0.10547-0.09375c-27.879-24.965-63.266-29.898-106.17-14.801-0.95312-1.0352-1.9297-2.082-2.9414-3.1484v0.10547c-21.816-22.758-45.816-34.02-71.996-33.773-18.484-0.5-39.512 8.8242-63.07 27.988l-0.10547 0.10547c-13.961 10.781-25.652 27.473-35.082 50.09-5.6875-3.0352-11.398-4.4219-17.137-4.1562-20.969-0.82422-37.734 11.57-50.301 37.219l0.10547-0.10547c-8.8359 17.602-14.582 36.973-17.234 58.102v0.09375c-2.5664 21.484-0.20703 43.117 7.0977 64.895l0.10547 0.10547c7.5977 23.73 25.891 36.871 54.855 39.445 2.9609 5.8164 6.8203 11.902 11.562 18.254l0.10156 0.10547c16.324 23.285 43.766 31.703 82.336 25.246 2.8242 3.2148 6.0742 6.4609 9.7383 9.7383v0.10547c16.098 14.438 32.824 21.434 50.195 20.988h0.19922c17.781-0.34766 31.266-4.6094 40.461-12.781 0.054687-0.085938 0.12891-0.14844 0.20312-0.21094zm-37.215-108.7c0.19922 0.11719 0.39844 0.25391 0.60547 0.40625 1.3594 0.80469 2.7109 1.625 4.0586 2.4297 10.102 6.082 20.75 10.375 31.934 12.875 8.1562 1.8359 16.539 2.7461 25.148 2.7344 8.7578-0.003906 17.137-1.1875 25.148-3.5469-0.57812 8.6016-5.1445 16.074-13.691 22.41l-0.10547 0.10547c-9.5703 6.8359-20.316 10.25-32.246 10.238-14.145-0.003907-27.332-3.7305-39.551-11.148l0.10547 0.09375c-12.422-7.7305-18.812-17.695-19.164-29.914-0.003906-4.8984 1.5469-8.5469 4.6641-10.945h0.20703c1.3633-0.875 2.8828-1.5586 4.5625-2.0312 2.5352 2.168 5.3164 4.2656 8.3242 6.293zm38.934-59.824c0.5625 0.16797 1.1055 0.30078 1.625 0.40625 1.4844 0.26953 2.9727 0.53516 4.4609 0.80469l-0.71094-0.19922c11.07 2.6367 22.23 3.582 33.461 2.8359h0.10156c6.7266-0.39062 13.453-1.3633 20.184-2.9414 6.1367 6.6133 9.4453 12.934 9.9414 18.961-0.011718 6.6094-1.7305 11.641-5.1719 15.113l-0.30859 0.30469c-0.10547 0.0625-0.19922 0.13281-0.30469 0.20703-1.8789 1.2109-3.6367 2.3984-5.2734 3.5508h-0.10156c-1.8594 1.3164-3.582 2.5039-5.1719 3.5469-0.16406 0.085937-0.33203 0.18359-0.50391 0.30469-0.79297 0.30859-1.5742 0.71484-2.332 1.2148-0.54688 0.16797-1.0898 0.36328-1.625 0.60547-7.8828 3.7305-16.363 5.5938-25.453 5.5781-6.5234-0.011719-12.883-0.72266-19.062-2.1211-8.2734-1.832-16.148-4.9727-23.625-9.4336-1.3477-0.80859-2.6992-1.625-4.0586-2.4375-3.5977-2.5195-6.6406-5.2266-9.125-8.1094v0.10547c-5.0625-6.0234-7.5938-12.883-7.6055-20.59 0.003906-5.2031 1.7617-9.0547 5.2773-11.555v-0.10547c4.5234-2.5156 10.414-3.7617 17.645-3.7461 5.0898 3.043 11.004 5.6055 17.738 7.6992zm87.008-93.895 0.10156 0.10547c9.2773 7.9883 14.145 15.965 14.602 23.922-0.75391 8.3398-6.125 17.023-16.121 26.062-0.45703 0.44141-0.89453 0.92187-1.3164 1.4219-0.35938 0.4375-0.69922 0.84375-1.0117 1.2227-0.92578 0.74609-1.7695 1.3828-2.5312 1.9258-0.16797 0.14062-0.33594 0.27734-0.51172 0.40625-5.2773 4.0586-11.125 7.3047-17.543 9.7383-2.1211 0.61719-4.2852 1.2266-6.4883 1.8203-6.3203 1.7539-12.641 2.793-18.965 3.1484h-0.10156c-8.4766 0.60156-16.895-0.078125-25.254-2.0312-0.23828-0.070312-0.48047-0.13281-0.71094-0.19922-1.2227-0.22656-2.4414-0.45703-3.6523-0.71094-1.2109-0.39062-2.3984-0.78906-3.5469-1.2227 4.6641-2.5664 8.7148-6.1133 12.164-10.645 0.058594-0.10547 0.12109-0.20703 0.21094-0.30078 4.4922-5.9883 7.4023-13.191 8.7148-21.594 2.7852 1.1562 6.8398 2.9141 12.172 5.2656 3.5664 1.582 7.1445 1.6836 10.75 0.30859 3.5781-1.4062 6.1445-3.8672 7.7031-7.4102 1.5898-3.5586 1.6875-7.1367 0.30859-10.75-1.4102-3.5742-3.8711-6.1406-7.4023-7.6992-12.359-5.4883-19.832-8.3984-22.41-8.7227-0.4375-0.050782-0.87891-0.085938-1.3164-0.10547-0.52734-0.046875-1.0312-0.078125-1.5195-0.10547-0.074219-0.24219-0.13672-0.48438-0.20703-0.70703-0.03125-0.15625-0.070312-0.32812-0.10547-0.50391-1.4961-4.832-3.625-9.6992-6.3867-14.605 28.027-7.8086 51.48-3.8281 70.375 11.965zm-249.45 202.59-0.10547-0.10547c-10.598-14.301-14.246-25.789-10.957-34.477 1.8164-3.4219 2.1562-6.9727 1.0156-10.645-1.125-3.6992-3.3906-6.4688-6.793-8.3086-3.4102-1.8164-6.9609-2.1523-10.645-1.0117-3.6953 1.1328-6.4688 3.3984-8.3125 6.7891-3.1484 5.0625-4.9727 10.535-5.4727 16.43-10.434-3.0977-17.531-9.375-21.297-18.863l0.10156 0.10547c-5.9375-17.66-7.8945-35.199-5.8828-52.621v-0.10547c2.2266-17.77 7.0312-34.062 14.402-48.879l0.10156-0.09375c6.6523-13.59 15.027-20.797 25.148-21.602 2.4727 0.33203 5.0039 1.4805 7.6055 3.4453-2.0508 7.1133-3.9453 14.613-5.6758 22.512-0.80859 3.7617-0.16797 7.2812 1.9258 10.547 2.0742 3.2852 4.9766 5.3398 8.7188 6.1875 3.7695 0.81641 7.2812 0.17188 10.547-1.9258 3.2734-2.0781 5.3359-4.9727 6.1836-8.7227 8.9648-40.953 22.453-69.008 40.461-84.16l0.10547-0.10547c17.227-14.027 32.41-21.301 45.527-21.801 18.711 0.28516 35.945 8.668 51.715 25.152 2.7695 2.875 5.2773 5.75 7.5039 8.6211 0.070312 0.09375 0.13281 0.19922 0.19922 0.30078 0.28516 0.39453 0.58594 0.76953 0.91406 1.1172 5.5625 7.0898 9.4453 14.023 11.66 20.785l-0.10547-0.50391c0.66406 2.3398 1.1719 4.6719 1.5195 6.9922-0.011719 0.18359-0.011719 0.34766 0 0.51172 0.11719 1.2695 0.1875 2.582 0.20703 3.9531-0.003907 6.5039-1.4258 11.883-4.2617 16.117l0.19922-0.19922c-2.4414 3.2109-5.8867 4.7305-10.34 4.5625-2.0352 0.027344-4-0.21484-5.8828-0.71094l-0.30469-0.10547h-0.10547c-4.1797-1.4219-8.0977-3.9922-11.762-7.6992h-0.10156c-9.0078-8.918-15.566-15.312-19.676-19.176-0.56641-1.332-1.3828-2.5742-2.4297-3.7461-2.3984-2.6641-5.3711-4.1836-8.9258-4.5625-3.5664-0.39453-6.8086 0.44141-9.7344 2.5352-2.8984 2.1211-4.7266 4.9297-5.4766 8.4141-1.4609 5-0.68359 11.785 2.332 20.387l0.10547 0.20703c1.4883 4.0625 2.332 7.0352 2.5352 8.918-0.26953 8.7148-3.8398 17.738-10.75 27.078l-0.10547 0.09375c-6.5078 8.5469-13.238 13.523-20.18 14.906-3.8047 0.51172-6.8789 2.3047-9.2305 5.3711-2.375 3.0742-3.3242 6.5195-2.8359 10.344 0.51172 3.8047 2.3008 6.8789 5.3711 9.2305 3.0742 2.3672 6.5195 3.3203 10.352 2.8359 12.336-1.1562 23.988-8.1523 34.98-20.984-0.20703 1.832-0.30859 3.7188-0.30859 5.6719 0 8.0391 1.4453 15.574 4.3633 22.617-1 0.56641-1.9805 1.1836-2.9453 1.8242-11.625 7.0781-17.434 18.527-17.438 34.371-0.019531 1.5469 0.011719 3.0664 0.10547 4.5625-8.8984 1.2031-16.469 5.7305-22.711 13.59l-0.10156 0.10156c-6.625 7.9727-9.9336 18.039-9.9414 30.219-0.046875 3.043 0.25781 6.082 0.91016 9.125-20.738 1.6211-36.09-3.5234-46.023-15.418zm119.45 44.82c-10.684-0.23047-21.059-4.8672-31.137-13.898v0.10547c-4.4531-4.0625-8-8.0547-10.645-11.961l-0.19922-0.30859c-0.17187-0.25781-0.34375-0.49609-0.51172-0.71094-2.4453-3.9531-3.7305-7.8711-3.8516-11.762-0.003906-5.0664 1.2422-9.3047 3.7578-12.672l0.10156-0.10547c1.7031-2.1641 3.8047-3.3164 6.2891-3.4453 0.63281-0.011719 1.1406-0.011719 1.5195 0 0.22656 0.089844 0.46484 0.1875 0.71094 0.30078 0.79297 0.40625 1.6094 0.74219 2.4375 1.0156 5.3008 7.4766 12.703 14.172 22.207 20.078l0.10547 0.09375c11.707 7.1094 24.078 11.738 37.113 13.898 0.32031 0.48047 0.69531 0.94531 1.1172 1.4219l-0.10156 0.10547c-0.13281 4.4453-2.0273 8.293-5.6836 11.555-5.3672 3.9727-13.039 6.0664-23.016 6.293h-0.21484z"/>
</svg>
