<?xml version="1.0" encoding="UTF-8"?>
<svg width="752pt" height="752pt" version="1.1" viewBox="0 0 752 752" xmlns="http://www.w3.org/2000/svg">
 <path d="m170.73 419.17c6.957 21.723 24.449 33.031 52.488 33.918 0.88281 0.03125 1.7461-0.027344 2.5781-0.17188 2.4062 3.6484 5.25 7.1562 8.5508 10.539 12.312 12.738 26.785 19.07 43.422 18.984 1.6836 0.035156 4.3672-0.25391 8.0234-0.85938 1.8516-0.30078 3.0312-0.47266 3.5469-0.51953h0.94531c2.9688 5.5352 7.1406 11.082 12.52 16.66l0.085937 0.085938c12.938 13.488 27.012 20.102 42.219 19.855 13.277-0.058593 24.898-3.7617 34.871-11.133 11.473-8.4336 16.996-18.242 16.582-29.438v-0.60547c14.523-0.48438 27.758-4.3672 39.711-11.648l0.089844-0.09375c15.98-10.023 23.727-22.254 23.223-36.688 0.09375-4.9844-0.71094-9.7812-2.4219-14.422 14.195 2.6641 28.699 4.957 43.512 6.9102 30.605 4.0156 51.383 5.1602 62.328 3.4531 0.058594-0.03125 0.11719-0.0625 0.17188-0.089844 14.195-2.1992 25.105-10.113 32.719-23.738l-0.089844 0.085937c8.0312-13.418 7.8633-28.578-0.51953-45.496-6.7734-16.645-28.699-26.34-65.781-29.09-0.42969-0.035156-0.86719-0.0625-1.293-0.089844 25.91-7.9922 41.68-18.043 47.305-30.125l0.089844-0.089843c9.0508-16.832 10.281-30.387 3.7148-40.652-5.3516-9.9414-13.375-16.781-24.086-20.547h0.16797c-9.1172-3.3984-19.5-4.8945-31.168-4.4883h-0.17188c-10.594 0.09375-31.773 5.5938-63.527 16.48-24.867 8.5156-45.5 16.801-61.902 24.867-4.0898-7.3398-9.793-14.812-17.09-22.441-18.57-19.391-39.004-28.961-61.293-28.75-15.766-0.41406-33.688 7.5039-53.781 23.742-11.902 9.2383-21.848 23.48-29.879 42.727-4.8398-2.5195-9.7031-3.6719-14.582-3.4531-17.824-0.68359-32.156 9.8711-42.992 31.684-7.3672 14.961-12.176 31.426-14.418 49.383-2.3008 18.352-0.25781 36.766 6.1328 55.254zm174.64 45.832h0.09375c8.0664 4.2266 16.527 7.2969 25.375 9.2461 0.48438 0.98828 1.1094 1.9453 1.8984 2.8477-0.41016 3.7617-2.7148 7.1836-6.9102 10.277-5.918 4.3633-12.816 6.5156-20.723 6.4727-8.9297-0.24609-17.273-4.4219-25.035-12.523l-0.078124-0.082031c-7.1719-7.4336-10.945-14.688-11.312-21.766 0-4.2422 1.0586-7.8359 3.1953-10.793l0.085938-0.085938c1.457-1.7578 3.2344-2.6719 5.3555-2.7578 0.98828-0.003906 1.6484-0.003906 1.9844 0 0.10547 0.019531 0.18359 0.050781 0.26953 0.089844h-0.34766c1.3477 0.66406 2.7031 1.0664 4.0586 1.2031 4.9766 6.7617 12.344 12.715 22.09 17.871zm-144.94-139.93c5.7461-11.598 12.938-17.727 21.586-18.395 2.1055 0.28516 4.2656 1.2617 6.4727 2.9375-1.7461 6.0508-3.3633 12.445-4.8398 19.168-0.6875 3.1992-0.14063 6.1953 1.6484 8.9766 1.7695 2.7891 4.2461 4.5469 7.418 5.2656 3.2031 0.69531 6.2109 0.14844 8.9805-1.6367 2.7852-1.7695 4.543-4.2461 5.2734-7.4297 7.6445-34.914 19.16-58.883 34.523-71.906 14.676-11.852 27.594-17.98 38.766-18.395 15.918 0.24219 30.594 7.3789 44.027 21.41v-0.089843c8.5195 8.9102 14.246 17.516 17.176 25.809 0.03125 0.089844 0.0625 0.17188 0.09375 0.25781 0.89453 3.1992 1.3672 6.3945 1.3789 9.582 0 5.4844-1.1836 9.9648-3.5352 13.473-2.0664 2.6719-4.9844 3.9414-8.7227 3.793-5.6406-0.14062-10.793-2.5039-15.449-7.0703-7.582-7.5156-13.133-12.922-16.66-16.234-0.47266-1.2227-1.2031-2.3789-2.1562-3.457-2.0469-2.2695-4.582-3.5586-7.5938-3.8828-3.043-0.33594-5.8086 0.38281-8.293 2.1562-2.4688 1.8086-4.0195 4.1992-4.6562 7.168-1.2617 4.2031-0.625 10.02 1.8906 17.434 0.074219 0.078126 0.12109 0.16797 0.17188 0.26172 1.2734 3.4609 1.9961 5.9922 2.1562 7.5938-0.21484 7.418-3.3203 15.102-9.3203 23.055-5.5195 7.2734-11.277 11.523-17.266 12.777-3.2148 0.47266-5.8164 2.0273-7.7734 4.6641-2.0039 2.6562-2.7734 5.625-2.332 8.8945 0.47266 3.2148 2.0273 5.8086 4.668 7.7734 2.6641 1.9961 5.6211 2.7734 8.8867 2.3242 11.734-1.2773 22.676-8.6523 32.805-22.102 7.0508-9.3203 11.48-18.477 13.285-27.453 8.3984 6.7422 17.605 10.051 27.625 9.9297 11.871-0.11719 21.137-4.5469 27.801-13.293l0.09375-0.17188c5.4609-7.082 8.2031-16.297 8.2031-27.625 0.003906-2.2383-0.10938-4.4844-0.34375-6.7305 16.016-8.1133 36.648-16.484 61.898-25.121 28.379-9.7617 47.195-14.855 56.457-15.285h0.16797c8.3047-0.27344 15.695 0.76172 22.191 3.1094h0.17188c4.9375 1.7578 8.6562 4.9297 11.129 9.4961 1.5117 4.4297 0.21094 10.441-3.8789 18.043l0.089843-0.078126c-6.1523 9.2461-23.359 17.129-51.625 23.648l0.089844-0.085938c-33.371 7.5625-64.824 15.93-94.363 25.121-2.9414 0.92578-5.1836 2.7422-6.7305 5.4375-1.5781 2.6953-2.0352 5.5469-1.3828 8.5469 0.70703 3.0117 2.3398 5.3945 4.9297 7.1719 2.5312 1.793 5.3242 2.4844 8.3711 2.0664 45.609-6.418 83.57-8.5703 113.86-6.4727 25.133 1.8594 40.496 7.125 46.105 15.797 4.2773 8.6523 4.6875 16.375 1.2031 23.227l-0.089844 0.085937c-3.6641 6.6406-8.8789 10.582-15.621 11.828l0.16797-0.09375c-9.7656 1.2852-28.363 0.13281-55.766-3.4453-28.301-3.7188-55.461-8.7188-81.488-15.02-2.4219-0.79297-4.9531-1.3984-7.6055-1.8164-0.21484-0.035156-0.41016-0.0625-0.59375-0.089844-1.0625-0.10937-2.1875-0.23047-3.3711-0.34375-3.2617-0.34375-6.1758 0.51953-8.7188 2.5898-2.543 2.082-3.9883 4.7656-4.3086 8.0312-0.34375 3.2578 0.51953 6.168 2.582 8.707 2.0938 2.5508 4.7734 3.9883 8.0312 4.3203 0.89844 0.09375 1.7617 0.18359 2.5898 0.26172 0.19922 0.035156 0.39844 0.0625 0.60547 0.089843 0.95703 0.18359 1.9062 0.41016 2.8477 0.6875 0.26172 0.11719 0.54687 0.23047 0.86328 0.34375 4.2617 1.4805 8.3125 3.9297 12.172 7.3398l0.089844 0.089844c5.2891 4.8633 8.0469 10.188 8.2891 15.969-0.5 6.2773-4.4922 11.77-12.004 16.492l0.09375-0.089844c-9.0781 5.5508-19.199 8.3086-30.387 8.2891-13.316 0.027344-25.641-2.9102-36.945-8.8086h0.085938c-10.871-5.75-16.598-13.008-17.176-21.754-0.09375-3.293 1.2422-5.6836 3.9688-7.1719l-0.085938 0.09375c4-1.957 9.207-2.9375 15.621-2.9375 2.2188 0.26953 6.8867 1.7617 13.988 4.4883 0.085938 0.03125 0.16406 0.070313 0.25781 0.085938 6.8984 2.8359 11.07 4.7031 12.52 5.6094 2.5 2.1719 5.3711 3.1523 8.6367 2.9375 3.2617-0.24609 5.9688-1.6328 8.1133-4.1367 2.1797-2.4961 3.1523-5.3711 2.9414-8.6367-0.26172-3.2578-1.6484-5.9609-4.1445-8.1133-1.9805-2.0742-8.4297-5.3516-19.344-9.8398-0.09375-0.027343-0.17188-0.050781-0.25781-0.089843-11.406-4.3711-18.969-6.4102-22.699-6.1289-11.078-0.011718-20.031 1.8906-26.848 5.6992l-0.09375 0.089844c-10.812 5.8516-16.27 15.148-16.402 27.879-8.8086 0.38281-16.207 4.2773-22.18 11.656l-0.09375 0.09375c-5.293 6.5156-8.1094 14.484-8.457 23.906-0.85156 0.10938-1.832 0.25781-2.9414 0.42969h-0.085938c-1.8633 0.31641-3.2148 0.48828-4.0586 0.51953-10.062-0.078125-18.84-3.9922-26.332-11.734-7.2344-7.4102-11.117-15.812-11.645-25.203-0.16406-3.293-1.457-6.0469-3.8945-8.2891-2.4258-2.2305-5.2812-3.2617-8.5391-3.1094-3.2891 0.15234-6.0508 1.4453-8.2812 3.8789-2.2305 2.4297-3.2695 5.2773-3.1133 8.5469 0.085938 1.9961 0.25781 3.9531 0.51562 5.8789-11.746-1.9141-19.516-7.6445-23.301-17.18-5.1289-14.906-6.7617-29.746-4.9375-44.543 1.8867-15.207 5.9414-29.137 12.152-41.797z"/>
</svg>
